<mxfile host="app.diagrams.net" modified="2021-01-19T04:25:25.569Z" agent="5.0 (Macintosh; Intel Mac OS X 10_15_7) AppleWebKit/537.36 (KHTML, like Gecko) Chrome/87.0.4280.141 Safari/537.36" etag="dJl9qL9SzBtEQMpVz0NM" version="14.2.4" type="github">
  <diagram id="C5RBs43oDa-KdzZeNtuy" name="Page-1">
    <mxGraphModel dx="1773" dy="557" grid="1" gridSize="10" guides="1" tooltips="1" connect="1" arrows="1" fold="1" page="1" pageScale="1" pageWidth="827" pageHeight="1169" math="0" shadow="0">
      <root>
        <mxCell id="WIyWlLk6GJQsqaUBKTNV-0" />
        <mxCell id="WIyWlLk6GJQsqaUBKTNV-1" parent="WIyWlLk6GJQsqaUBKTNV-0" />
        <mxCell id="t5NuStTucJ6EQLXy4pSK-9" style="edgeStyle=orthogonalEdgeStyle;rounded=0;orthogonalLoop=1;jettySize=auto;html=1;exitX=0.5;exitY=1;exitDx=0;exitDy=0;entryX=0.5;entryY=0;entryDx=0;entryDy=0;fontStyle=1;fontSize=14;fontFamily=Comic Sans MS;" edge="1" parent="WIyWlLk6GJQsqaUBKTNV-1" source="t5NuStTucJ6EQLXy4pSK-0" target="t5NuStTucJ6EQLXy4pSK-2">
          <mxGeometry relative="1" as="geometry" />
        </mxCell>
        <mxCell id="t5NuStTucJ6EQLXy4pSK-0" value="&lt;font&gt;initState&lt;/font&gt;" style="rounded=1;whiteSpace=wrap;html=1;fontStyle=1;fontSize=14;fontFamily=Comic Sans MS;" vertex="1" parent="WIyWlLk6GJQsqaUBKTNV-1">
          <mxGeometry x="220" y="100" width="120" height="40" as="geometry" />
        </mxCell>
        <mxCell id="t5NuStTucJ6EQLXy4pSK-16" style="edgeStyle=orthogonalEdgeStyle;rounded=0;orthogonalLoop=1;jettySize=auto;html=1;exitX=0.5;exitY=1;exitDx=0;exitDy=0;fontStyle=1;fontSize=14;fontFamily=Comic Sans MS;" edge="1" parent="WIyWlLk6GJQsqaUBKTNV-1" source="t5NuStTucJ6EQLXy4pSK-2" target="t5NuStTucJ6EQLXy4pSK-15">
          <mxGeometry relative="1" as="geometry" />
        </mxCell>
        <mxCell id="t5NuStTucJ6EQLXy4pSK-2" value="didChangeDependencies" style="rounded=1;whiteSpace=wrap;html=1;fontStyle=1;fontSize=14;fontFamily=Comic Sans MS;" vertex="1" parent="WIyWlLk6GJQsqaUBKTNV-1">
          <mxGeometry x="193.75" y="200" width="172.5" height="40" as="geometry" />
        </mxCell>
        <mxCell id="t5NuStTucJ6EQLXy4pSK-18" style="edgeStyle=orthogonalEdgeStyle;rounded=0;orthogonalLoop=1;jettySize=auto;html=1;exitX=1;exitY=0.5;exitDx=0;exitDy=0;entryX=0;entryY=0.5;entryDx=0;entryDy=0;fontStyle=1;fontSize=14;fontFamily=Comic Sans MS;" edge="1" parent="WIyWlLk6GJQsqaUBKTNV-1" source="t5NuStTucJ6EQLXy4pSK-3" target="t5NuStTucJ6EQLXy4pSK-15">
          <mxGeometry relative="1" as="geometry" />
        </mxCell>
        <mxCell id="t5NuStTucJ6EQLXy4pSK-3" value="didUpdateWidget" style="rounded=1;whiteSpace=wrap;html=1;fontStyle=1;fontSize=14;fontFamily=Comic Sans MS;" vertex="1" parent="WIyWlLk6GJQsqaUBKTNV-1">
          <mxGeometry x="-50" y="300" width="162.5" height="40" as="geometry" />
        </mxCell>
        <mxCell id="t5NuStTucJ6EQLXy4pSK-13" style="edgeStyle=orthogonalEdgeStyle;rounded=0;orthogonalLoop=1;jettySize=auto;html=1;exitX=0.5;exitY=1;exitDx=0;exitDy=0;entryX=0.5;entryY=0;entryDx=0;entryDy=0;fontStyle=1;fontSize=14;fontFamily=Comic Sans MS;" edge="1" parent="WIyWlLk6GJQsqaUBKTNV-1" source="t5NuStTucJ6EQLXy4pSK-4" target="t5NuStTucJ6EQLXy4pSK-3">
          <mxGeometry relative="1" as="geometry" />
        </mxCell>
        <mxCell id="t5NuStTucJ6EQLXy4pSK-4" value="reassemble" style="rounded=1;whiteSpace=wrap;html=1;fontStyle=1;fontSize=14;fontFamily=Comic Sans MS;" vertex="1" parent="WIyWlLk6GJQsqaUBKTNV-1">
          <mxGeometry x="-50" y="200" width="162.5" height="40" as="geometry" />
        </mxCell>
        <mxCell id="t5NuStTucJ6EQLXy4pSK-11" style="edgeStyle=orthogonalEdgeStyle;rounded=0;orthogonalLoop=1;jettySize=auto;html=1;exitX=0.5;exitY=1;exitDx=0;exitDy=0;fontStyle=1;fontSize=14;fontFamily=Comic Sans MS;" edge="1" parent="WIyWlLk6GJQsqaUBKTNV-1" source="t5NuStTucJ6EQLXy4pSK-7" target="t5NuStTucJ6EQLXy4pSK-8">
          <mxGeometry relative="1" as="geometry" />
        </mxCell>
        <mxCell id="t5NuStTucJ6EQLXy4pSK-7" value="build" style="rounded=1;whiteSpace=wrap;html=1;fontStyle=1;fontSize=14;fontFamily=Comic Sans MS;" vertex="1" parent="WIyWlLk6GJQsqaUBKTNV-1">
          <mxGeometry x="197.5" y="400" width="165" height="40" as="geometry" />
        </mxCell>
        <mxCell id="t5NuStTucJ6EQLXy4pSK-8" value="show" style="rounded=1;whiteSpace=wrap;html=1;fontStyle=1;fontSize=14;fontFamily=Comic Sans MS;" vertex="1" parent="WIyWlLk6GJQsqaUBKTNV-1">
          <mxGeometry x="197.5" y="500" width="165" height="40" as="geometry" />
        </mxCell>
        <mxCell id="t5NuStTucJ6EQLXy4pSK-17" style="edgeStyle=orthogonalEdgeStyle;rounded=0;orthogonalLoop=1;jettySize=auto;html=1;exitX=0.5;exitY=1;exitDx=0;exitDy=0;entryX=0.5;entryY=0;entryDx=0;entryDy=0;fontStyle=1;fontSize=14;fontFamily=Comic Sans MS;" edge="1" parent="WIyWlLk6GJQsqaUBKTNV-1" source="t5NuStTucJ6EQLXy4pSK-15" target="t5NuStTucJ6EQLXy4pSK-7">
          <mxGeometry relative="1" as="geometry" />
        </mxCell>
        <mxCell id="t5NuStTucJ6EQLXy4pSK-15" value="_resolveImage" style="rounded=1;whiteSpace=wrap;html=1;fontStyle=1;fontSize=14;fontFamily=Comic Sans MS;" vertex="1" parent="WIyWlLk6GJQsqaUBKTNV-1">
          <mxGeometry x="197.5" y="300" width="165" height="40" as="geometry" />
        </mxCell>
        <mxCell id="t5NuStTucJ6EQLXy4pSK-26" style="edgeStyle=orthogonalEdgeStyle;rounded=0;orthogonalLoop=1;jettySize=auto;html=1;exitX=1;exitY=0.5;exitDx=0;exitDy=0;entryX=0;entryY=0.5;entryDx=0;entryDy=0;fontStyle=1;fontSize=14;fontFamily=Comic Sans MS;" edge="1" parent="WIyWlLk6GJQsqaUBKTNV-1" source="t5NuStTucJ6EQLXy4pSK-19" target="t5NuStTucJ6EQLXy4pSK-21">
          <mxGeometry relative="1" as="geometry" />
        </mxCell>
        <mxCell id="t5NuStTucJ6EQLXy4pSK-19" value="putIfAbsent" style="rounded=1;whiteSpace=wrap;html=1;fontStyle=1;fontSize=14;fontFamily=Comic Sans MS;" vertex="1" parent="WIyWlLk6GJQsqaUBKTNV-1">
          <mxGeometry x="440" y="300" width="130" height="40" as="geometry" />
        </mxCell>
        <mxCell id="t5NuStTucJ6EQLXy4pSK-27" value="No" style="edgeStyle=orthogonalEdgeStyle;rounded=0;orthogonalLoop=1;jettySize=auto;html=1;exitX=0.5;exitY=1;exitDx=0;exitDy=0;fontStyle=1;fontSize=14;fontFamily=Comic Sans MS;" edge="1" parent="WIyWlLk6GJQsqaUBKTNV-1" source="t5NuStTucJ6EQLXy4pSK-21">
          <mxGeometry relative="1" as="geometry">
            <mxPoint x="690" y="430" as="targetPoint" />
          </mxGeometry>
        </mxCell>
        <mxCell id="t5NuStTucJ6EQLXy4pSK-31" style="edgeStyle=orthogonalEdgeStyle;rounded=0;orthogonalLoop=1;jettySize=auto;html=1;exitX=0.5;exitY=0;exitDx=0;exitDy=0;entryX=0.5;entryY=1;entryDx=0;entryDy=0;fontStyle=1;fontSize=14;fontFamily=Comic Sans MS;" edge="1" parent="WIyWlLk6GJQsqaUBKTNV-1" source="t5NuStTucJ6EQLXy4pSK-21" target="t5NuStTucJ6EQLXy4pSK-30">
          <mxGeometry relative="1" as="geometry" />
        </mxCell>
        <mxCell id="t5NuStTucJ6EQLXy4pSK-33" value="yes" style="edgeLabel;html=1;align=center;verticalAlign=middle;resizable=0;points=[];fontStyle=1;fontSize=14;fontFamily=Comic Sans MS;" vertex="1" connectable="0" parent="t5NuStTucJ6EQLXy4pSK-31">
          <mxGeometry x="-0.0286" relative="1" as="geometry">
            <mxPoint as="offset" />
          </mxGeometry>
        </mxCell>
        <mxCell id="t5NuStTucJ6EQLXy4pSK-21" value="是否存在&lt;br style=&quot;font-size: 14px;&quot;&gt;缓存" style="rhombus;whiteSpace=wrap;html=1;shadow=0;fontFamily=Comic Sans MS;fontSize=14;align=center;strokeWidth=1;spacing=6;spacingTop=-4;fontStyle=1" vertex="1" parent="WIyWlLk6GJQsqaUBKTNV-1">
          <mxGeometry x="640" y="280" width="100" height="80" as="geometry" />
        </mxCell>
        <mxCell id="t5NuStTucJ6EQLXy4pSK-23" value="" style="endArrow=classic;html=1;exitX=1;exitY=0;exitDx=0;exitDy=0;fontStyle=1;fontSize=14;fontFamily=Comic Sans MS;" edge="1" parent="WIyWlLk6GJQsqaUBKTNV-1">
          <mxGeometry width="50" height="50" relative="1" as="geometry">
            <mxPoint x="432.5" y="329.5" as="sourcePoint" />
            <mxPoint x="370" y="330" as="targetPoint" />
          </mxGeometry>
        </mxCell>
        <mxCell id="t5NuStTucJ6EQLXy4pSK-24" value="" style="endArrow=classic;html=1;exitX=1;exitY=0;exitDx=0;exitDy=0;fontStyle=1;fontSize=14;fontFamily=Comic Sans MS;" edge="1" parent="WIyWlLk6GJQsqaUBKTNV-1">
          <mxGeometry width="50" height="50" relative="1" as="geometry">
            <mxPoint x="370" y="310" as="sourcePoint" />
            <mxPoint x="430" y="310" as="targetPoint" />
          </mxGeometry>
        </mxCell>
        <mxCell id="t5NuStTucJ6EQLXy4pSK-29" style="edgeStyle=orthogonalEdgeStyle;rounded=0;orthogonalLoop=1;jettySize=auto;html=1;exitX=0;exitY=0.5;exitDx=0;exitDy=0;entryX=0.5;entryY=1;entryDx=0;entryDy=0;fontStyle=1;fontSize=14;fontFamily=Comic Sans MS;" edge="1" parent="WIyWlLk6GJQsqaUBKTNV-1" source="t5NuStTucJ6EQLXy4pSK-28" target="t5NuStTucJ6EQLXy4pSK-19">
          <mxGeometry relative="1" as="geometry" />
        </mxCell>
        <mxCell id="t5NuStTucJ6EQLXy4pSK-28" value="生成图片流并缓存" style="rounded=1;whiteSpace=wrap;html=1;fontStyle=1;fontSize=14;fontFamily=Comic Sans MS;" vertex="1" parent="WIyWlLk6GJQsqaUBKTNV-1">
          <mxGeometry x="625" y="430" width="130" height="40" as="geometry" />
        </mxCell>
        <mxCell id="t5NuStTucJ6EQLXy4pSK-32" style="edgeStyle=orthogonalEdgeStyle;rounded=0;orthogonalLoop=1;jettySize=auto;html=1;exitX=0;exitY=0.5;exitDx=0;exitDy=0;entryX=0.5;entryY=0;entryDx=0;entryDy=0;fontStyle=1;fontSize=14;fontFamily=Comic Sans MS;" edge="1" parent="WIyWlLk6GJQsqaUBKTNV-1" source="t5NuStTucJ6EQLXy4pSK-30" target="t5NuStTucJ6EQLXy4pSK-19">
          <mxGeometry relative="1" as="geometry" />
        </mxCell>
        <mxCell id="t5NuStTucJ6EQLXy4pSK-30" value="取出缓存图片流" style="rounded=1;whiteSpace=wrap;html=1;fontStyle=1;fontSize=14;fontFamily=Comic Sans MS;" vertex="1" parent="WIyWlLk6GJQsqaUBKTNV-1">
          <mxGeometry x="625" y="170" width="130" height="40" as="geometry" />
        </mxCell>
      </root>
    </mxGraphModel>
  </diagram>
</mxfile>
